<svg 
xmlns="http://www.w3.org/2000/svg" 
xmlns:xlink="http://www.w3.org/1999/xlink" 
viewBox="0 0 200.8 166"
fill="rgba(0,0,0,0.8)">
    <g transform="translate(-389.72 -120.17)">
        <g id="a" transform="translate(44.361 -389.76)">
            <path d="M357.36 641.93v27.6c0 3.546 2.854 6.4 6.4 6.4h16c3.546 0 6.4-2.854 6.4-6.4v-27.6zM385.56 509.93a11.188 11.188 0 0 0-10.312 6.813l-29 68a11.14 11.14 0 0 0-.888 4.387v37.6c0 6.205 4.996 11.2 11.2 11.2h89.2v-35.103h-28.214V588.71h28.214v-20.83l-77.162.213 15.312-38.437c1.916-4.808 2.046-5.453 4.813-5.45l57.038.05V509.93z"/>
            <rect width="11.429" height="25.714" x="360" y="588.65" fill="#fff" ry="5.714"/>
        </g>
        <use xlink:href="#a" width="1052.362" height="744.094" transform="matrix(-1 0 0 1 980.24 0)"/>
    </g>
</svg>